<svg xmlns="http://www.w3.org/2000/svg" width="640" height="400" viewBox="0 0 640 400" role="img" aria-label="Sigmoid-Lösung auf Koordinatengitter">
  <style>
    .grid { stroke: #ddd; stroke-width: 1; }
    .grid-minor { stroke: #eee; stroke-width: 0.6; }
    .grid-micro { stroke: #f3f3f3; stroke-width: 0.4; }
    .grid-nano { stroke: #f8f8f8; stroke-width: 0.3; }
    .axis { stroke: #000; stroke-width: 2; }
    .tick { stroke: #000; stroke-width: 1; }
    .label { font-family: sans-serif; font-size: 12px; fill: #000; }
    .curve { fill: none; stroke: #1f77b4; stroke-width: 3; }
    .point { fill: #d62728; stroke: #fff; stroke-width: 1; }
    .helper { stroke: #999; stroke-width: 1; stroke-dasharray: 4 4; }
  </style>
  <rect x="0" y="0" width="640" height="400" fill="white" />
  <g transform="translate(50,20)">
    <g class="grid-nano">
  <line x1="0" y1="3.3" x2="540" y2="3.3" />
  <line x1="0" y1="6.6" x2="540" y2="6.6" />
  <line x1="0" y1="9.9" x2="540" y2="9.9" />
  <line x1="0" y1="13.2" x2="540" y2="13.2" />
  <line x1="0" y1="16.5" x2="540" y2="16.5" />
  <line x1="0" y1="19.8" x2="540" y2="19.8" />
  <line x1="0" y1="23.1" x2="540" y2="23.1" />
  <line x1="0" y1="26.4" x2="540" y2="26.4" />
  <line x1="0" y1="29.7" x2="540" y2="29.7" />
  <line x1="0" y1="33.0" x2="540" y2="33.0" />
  <line x1="0" y1="36.3" x2="540" y2="36.3" />
  <line x1="0" y1="39.6" x2="540" y2="39.6" />
  <line x1="0" y1="42.9" x2="540" y2="42.9" />
  <line x1="0" y1="46.2" x2="540" y2="46.2" />
  <line x1="0" y1="49.5" x2="540" y2="49.5" />
  <line x1="0" y1="52.8" x2="540" y2="52.8" />
  <line x1="0" y1="56.1" x2="540" y2="56.1" />
  <line x1="0" y1="59.4" x2="540" y2="59.4" />
  <line x1="0" y1="62.7" x2="540" y2="62.7" />
  <line x1="0" y1="66.0" x2="540" y2="66.0" />
  <line x1="0" y1="69.3" x2="540" y2="69.3" />
  <line x1="0" y1="72.6" x2="540" y2="72.6" />
  <line x1="0" y1="75.9" x2="540" y2="75.9" />
  <line x1="0" y1="79.2" x2="540" y2="79.2" />
  <line x1="0" y1="82.5" x2="540" y2="82.5" />
  <line x1="0" y1="85.8" x2="540" y2="85.8" />
  <line x1="0" y1="89.1" x2="540" y2="89.1" />
  <line x1="0" y1="92.4" x2="540" y2="92.4" />
  <line x1="0" y1="95.7" x2="540" y2="95.7" />
  <line x1="0" y1="99.0" x2="540" y2="99.0" />
  <line x1="0" y1="102.3" x2="540" y2="102.3" />
  <line x1="0" y1="105.6" x2="540" y2="105.6" />
  <line x1="0" y1="108.9" x2="540" y2="108.9" />
  <line x1="0" y1="112.2" x2="540" y2="112.2" />
  <line x1="0" y1="115.5" x2="540" y2="115.5" />
  <line x1="0" y1="118.8" x2="540" y2="118.8" />
  <line x1="0" y1="122.1" x2="540" y2="122.1" />
  <line x1="0" y1="125.4" x2="540" y2="125.4" />
  <line x1="0" y1="128.7" x2="540" y2="128.7" />
  <line x1="0" y1="132.0" x2="540" y2="132.0" />
  <line x1="0" y1="135.3" x2="540" y2="135.3" />
  <line x1="0" y1="138.6" x2="540" y2="138.6" />
  <line x1="0" y1="141.9" x2="540" y2="141.9" />
  <line x1="0" y1="145.2" x2="540" y2="145.2" />
  <line x1="0" y1="148.5" x2="540" y2="148.5" />
  <line x1="0" y1="151.8" x2="540" y2="151.8" />
  <line x1="0" y1="155.1" x2="540" y2="155.1" />
  <line x1="0" y1="158.4" x2="540" y2="158.4" />
  <line x1="0" y1="161.7" x2="540" y2="161.7" />
  <line x1="0" y1="165.0" x2="540" y2="165.0" />
  <line x1="0" y1="168.3" x2="540" y2="168.3" />
  <line x1="0" y1="171.6" x2="540" y2="171.6" />
  <line x1="0" y1="174.9" x2="540" y2="174.9" />
  <line x1="0" y1="178.2" x2="540" y2="178.2" />
  <line x1="0" y1="181.5" x2="540" y2="181.5" />
  <line x1="0" y1="184.8" x2="540" y2="184.8" />
  <line x1="0" y1="188.1" x2="540" y2="188.1" />
  <line x1="0" y1="191.4" x2="540" y2="191.4" />
  <line x1="0" y1="194.7" x2="540" y2="194.7" />
  <line x1="0" y1="198.0" x2="540" y2="198.0" />
  <line x1="0" y1="201.3" x2="540" y2="201.3" />
  <line x1="0" y1="204.6" x2="540" y2="204.6" />
  <line x1="0" y1="207.9" x2="540" y2="207.9" />
  <line x1="0" y1="211.2" x2="540" y2="211.2" />
  <line x1="0" y1="214.5" x2="540" y2="214.5" />
  <line x1="0" y1="217.8" x2="540" y2="217.8" />
  <line x1="0" y1="221.1" x2="540" y2="221.1" />
  <line x1="0" y1="224.4" x2="540" y2="224.4" />
  <line x1="0" y1="227.7" x2="540" y2="227.7" />
  <line x1="0" y1="231.0" x2="540" y2="231.0" />
  <line x1="0" y1="234.3" x2="540" y2="234.3" />
  <line x1="0" y1="237.6" x2="540" y2="237.6" />
  <line x1="0" y1="240.9" x2="540" y2="240.9" />
  <line x1="0" y1="244.2" x2="540" y2="244.2" />
  <line x1="0" y1="247.5" x2="540" y2="247.5" />
  <line x1="0" y1="250.8" x2="540" y2="250.8" />
  <line x1="0" y1="254.1" x2="540" y2="254.1" />
  <line x1="0" y1="257.4" x2="540" y2="257.4" />
  <line x1="0" y1="260.7" x2="540" y2="260.7" />
  <line x1="0" y1="264.0" x2="540" y2="264.0" />
  <line x1="0" y1="267.3" x2="540" y2="267.3" />
  <line x1="0" y1="270.6" x2="540" y2="270.6" />
  <line x1="0" y1="273.9" x2="540" y2="273.9" />
  <line x1="0" y1="277.2" x2="540" y2="277.2" />
  <line x1="0" y1="280.5" x2="540" y2="280.5" />
  <line x1="0" y1="283.8" x2="540" y2="283.8" />
  <line x1="0" y1="287.1" x2="540" y2="287.1" />
  <line x1="0" y1="290.4" x2="540" y2="290.4" />
  <line x1="0" y1="293.7" x2="540" y2="293.7" />
  <line x1="0" y1="297.0" x2="540" y2="297.0" />
  <line x1="0" y1="300.3" x2="540" y2="300.3" />
  <line x1="0" y1="303.6" x2="540" y2="303.6" />
  <line x1="0" y1="306.9" x2="540" y2="306.9" />
  <line x1="0" y1="310.2" x2="540" y2="310.2" />
  <line x1="0" y1="313.5" x2="540" y2="313.5" />
  <line x1="0" y1="316.8" x2="540" y2="316.8" />
  <line x1="0" y1="320.1" x2="540" y2="320.1" />
  <line x1="0" y1="323.4" x2="540" y2="323.4" />
  <line x1="0" y1="326.7" x2="540" y2="326.7" />
</g>
    <g class="grid-minor">
  <line x1="0" y1="16.5" x2="540" y2="16.5" />
  <line x1="0" y1="33.0" x2="540" y2="33.0" />
  <line x1="0" y1="49.5" x2="540" y2="49.5" />
  <line x1="0" y1="66.0" x2="540" y2="66.0" />
  <line x1="0" y1="82.5" x2="540" y2="82.5" />
  <line x1="0" y1="99.0" x2="540" y2="99.0" />
  <line x1="0" y1="115.5" x2="540" y2="115.5" />
  <line x1="0" y1="132.0" x2="540" y2="132.0" />
  <line x1="0" y1="148.5" x2="540" y2="148.5" />
  <line x1="0" y1="165.0" x2="540" y2="165.0" />
  <line x1="0" y1="181.5" x2="540" y2="181.5" />
  <line x1="0" y1="198.0" x2="540" y2="198.0" />
  <line x1="0" y1="214.5" x2="540" y2="214.5" />
  <line x1="0" y1="231.0" x2="540" y2="231.0" />
  <line x1="0" y1="247.5" x2="540" y2="247.5" />
  <line x1="0" y1="264.0" x2="540" y2="264.0" />
  <line x1="0" y1="280.5" x2="540" y2="280.5" />
  <line x1="0" y1="297.0" x2="540" y2="297.0" />
  <line x1="0" y1="313.5" x2="540" y2="313.5" />
</g>
    <g class="grid">
  <line x1="0" y1="33.0" x2="540" y2="33.0" />
  <line x1="0" y1="66.0" x2="540" y2="66.0" />
  <line x1="0" y1="99.0" x2="540" y2="99.0" />
  <line x1="0" y1="132.0" x2="540" y2="132.0" />
  <line x1="0" y1="165.0" x2="540" y2="165.0" />
  <line x1="0" y1="198.0" x2="540" y2="198.0" />
  <line x1="0" y1="231.0" x2="540" y2="231.0" />
  <line x1="0" y1="264.0" x2="540" y2="264.0" />
  <line x1="0" y1="297.0" x2="540" y2="297.0" />
</g>
    <g class="grid-minor">
  <line x1="22.5" y1="0" x2="22.5" y2="330" />
  <line x1="45.0" y1="0" x2="45.0" y2="330" />
  <line x1="67.5" y1="0" x2="67.5" y2="330" />
  <line x1="90.0" y1="0" x2="90.0" y2="330" />
  <line x1="112.5" y1="0" x2="112.5" y2="330" />
  <line x1="135.0" y1="0" x2="135.0" y2="330" />
  <line x1="157.5" y1="0" x2="157.5" y2="330" />
  <line x1="180.0" y1="0" x2="180.0" y2="330" />
  <line x1="202.5" y1="0" x2="202.5" y2="330" />
  <line x1="225.0" y1="0" x2="225.0" y2="330" />
  <line x1="247.5" y1="0" x2="247.5" y2="330" />
  <line x1="270.0" y1="0" x2="270.0" y2="330" />
  <line x1="292.5" y1="0" x2="292.5" y2="330" />
  <line x1="315.0" y1="0" x2="315.0" y2="330" />
  <line x1="337.5" y1="0" x2="337.5" y2="330" />
  <line x1="360.0" y1="0" x2="360.0" y2="330" />
  <line x1="382.5" y1="0" x2="382.5" y2="330" />
  <line x1="405.0" y1="0" x2="405.0" y2="330" />
  <line x1="427.5" y1="0" x2="427.5" y2="330" />
  <line x1="450.0" y1="0" x2="450.0" y2="330" />
  <line x1="472.5" y1="0" x2="472.5" y2="330" />
  <line x1="495.0" y1="0" x2="495.0" y2="330" />
  <line x1="517.5" y1="0" x2="517.5" y2="330" />
</g>
    <g class="grid">
  <line x1="45.0" y1="0" x2="45.0" y2="330" />
  <line x1="90.0" y1="0" x2="90.0" y2="330" />
  <line x1="135.0" y1="0" x2="135.0" y2="330" />
  <line x1="180.0" y1="0" x2="180.0" y2="330" />
  <line x1="225.0" y1="0" x2="225.0" y2="330" />
  <line x1="270.0" y1="0" x2="270.0" y2="330" />
  <line x1="315.0" y1="0" x2="315.0" y2="330" />
  <line x1="360.0" y1="0" x2="360.0" y2="330" />
  <line x1="405.0" y1="0" x2="405.0" y2="330" />
  <line x1="450.0" y1="0" x2="450.0" y2="330" />
  <line x1="495.0" y1="0" x2="495.0" y2="330" />
</g>
    <line class="axis" x1="0" y1="330" x2="540" y2="330" />
    <line class="axis" x1="270" y1="0" x2="270" y2="330" />
    <line class="helper" x1="0" y1="165" x2="540" y2="165" />
    <path class="curve" d="M 0.00,329.18 L 2.25,329.14 L 4.50,329.10 L 6.75,329.05 L 9.00,329.00 L 11.25,328.95 L 13.50,328.90 L 15.75,328.84 L 18.00,328.78 L 20.25,328.72 L 22.50,328.66 L 24.75,328.59 L 27.00,328.52 L 29.25,328.44 L 31.50,328.36 L 33.75,328.28 L 36.00,328.19 L 38.25,328.10 L 40.50,328.00 L 42.75,327.90 L 45.00,327.79 L 47.25,327.68 L 49.50,327.56 L 51.75,327.44 L 54.00,327.31 L 56.25,327.17 L 58.50,327.03 L 60.75,326.87 L 63.00,326.72 L 65.25,326.55 L 67.50,326.37 L 69.75,326.19 L 72.00,326.00 L 74.25,325.80 L 76.50,325.58 L 78.75,325.36 L 81.00,325.12 L 83.25,324.88 L 85.50,324.62 L 87.75,324.35 L 90.00,324.06 L 92.25,323.77 L 94.50,323.45 L 96.75,323.12 L 99.00,322.78 L 101.25,322.42 L 103.50,322.04 L 105.75,321.64 L 108.00,321.22 L 110.25,320.79 L 112.50,320.33 L 114.75,319.85 L 117.00,319.34 L 119.25,318.81 L 121.50,318.26 L 123.75,317.68 L 126.00,317.08 L 128.25,316.44 L 130.50,315.77 L 132.75,315.08 L 135.00,314.35 L 137.25,313.59 L 139.50,312.79 L 141.75,311.96 L 144.00,311.08 L 146.25,310.17 L 148.50,309.22 L 150.75,308.22 L 153.00,307.18 L 155.25,306.10 L 157.50,304.97 L 159.75,303.79 L 162.00,302.55 L 164.25,301.27 L 166.50,299.93 L 168.75,298.53 L 171.00,297.08 L 173.25,295.57 L 175.50,294.00 L 177.75,292.36 L 180.00,290.66 L 182.25,288.90 L 184.50,287.06 L 186.75,285.16 L 189.00,283.19 L 191.25,281.14 L 193.50,279.03 L 195.75,276.83 L 198.00,274.57 L 200.25,272.22 L 202.50,269.80 L 204.75,267.30 L 207.00,264.72 L 209.25,262.06 L 211.50,259.33 L 213.75,256.51 L 216.00,253.61 L 218.25,250.64 L 220.50,247.59 L 222.75,244.46 L 225.00,241.25 L 227.25,237.97 L 229.50,234.61 L 231.75,231.19 L 234.00,227.69 L 236.25,224.13 L 238.50,220.50 L 240.75,216.81 L 243.00,213.07 L 245.25,209.26 L 247.50,205.41 L 249.75,201.51 L 252.00,197.57 L 254.25,193.58 L 256.50,189.57 L 258.75,185.52 L 261.00,181.45 L 263.25,177.35 L 265.50,173.24 L 267.75,169.12 L 270.00,165.00 L 272.25,160.88 L 274.50,156.76 L 276.75,152.65 L 279.00,148.55 L 281.25,144.48 L 283.50,140.43 L 285.75,136.42 L 288.00,132.43 L 290.25,128.49 L 292.50,124.59 L 294.75,120.74 L 297.00,116.93 L 299.25,113.19 L 301.50,109.50 L 303.75,105.87 L 306.00,102.31 L 308.25,98.81 L 310.50,95.39 L 312.75,92.03 L 315.00,88.75 L 317.25,85.54 L 319.50,82.41 L 321.75,79.36 L 324.00,76.39 L 326.25,73.49 L 328.50,70.67 L 330.75,67.94 L 333.00,65.28 L 335.25,62.70 L 337.50,60.20 L 339.75,57.78 L 342.00,55.43 L 344.25,53.17 L 346.50,50.97 L 348.75,48.86 L 351.00,46.81 L 353.25,44.84 L 355.50,42.94 L 357.75,41.10 L 360.00,39.34 L 362.25,37.64 L 364.50,36.00 L 366.75,34.43 L 369.00,32.92 L 371.25,31.47 L 373.50,30.07 L 375.75,28.73 L 378.00,27.45 L 380.25,26.21 L 382.50,25.03 L 384.75,23.90 L 387.00,22.82 L 389.25,21.78 L 391.50,20.78 L 393.75,19.83 L 396.00,18.92 L 398.25,18.04 L 400.50,17.21 L 402.75,16.41 L 405.00,15.65 L 407.25,14.92 L 409.50,14.23 L 411.75,13.56 L 414.00,12.92 L 416.25,12.32 L 418.50,11.74 L 420.75,11.19 L 423.00,10.66 L 425.25,10.15 L 427.50,9.67 L 429.75,9.21 L 432.00,8.78 L 434.25,8.36 L 436.50,7.96 L 438.75,7.58 L 441.00,7.22 L 443.25,6.88 L 445.50,6.55 L 447.75,6.23 L 450.00,5.94 L 452.25,5.65 L 454.50,5.38 L 456.75,5.12 L 459.00,4.88 L 461.25,4.64 L 463.50,4.42 L 465.75,4.20 L 468.00,4.00 L 470.25,3.81 L 472.50,3.63 L 474.75,3.45 L 477.00,3.28 L 479.25,3.13 L 481.50,2.97 L 483.75,2.83 L 486.00,2.69 L 488.25,2.56 L 490.50,2.44 L 492.75,2.32 L 495.00,2.21 L 497.25,2.10 L 499.50,2.00 L 501.75,1.90 L 504.00,1.81 L 506.25,1.72 L 508.50,1.64 L 510.75,1.56 L 513.00,1.48 L 515.25,1.41 L 517.50,1.34 L 519.75,1.28 L 522.00,1.22 L 524.25,1.16 L 526.50,1.10 L 528.75,1.05 L 531.00,1.00 L 533.25,0.95 L 535.50,0.90 L 537.75,0.86 L 540.00,0.82" />
    <g>
      <circle class="point" cx="0.0" cy="329.2" r="4" />
      <circle class="point" cx="45.0" cy="327.8" r="4" />
      <circle class="point" cx="90.0" cy="324.1" r="4" />
      <circle class="point" cx="135.0" cy="314.3" r="4" />
      <circle class="point" cx="180.0" cy="290.7" r="4" />
      <circle class="point" cx="225.0" cy="241.2" r="4" />
      <circle class="point" cx="270.0" cy="165.0" r="4" />
      <circle class="point" cx="315.0" cy="88.8" r="4" />
      <circle class="point" cx="360.0" cy="39.3" r="4" />
      <circle class="point" cx="405.0" cy="15.7" r="4" />
      <circle class="point" cx="450.0" cy="5.9" r="4" />
      <circle class="point" cx="495.0" cy="2.2" r="4" />
      <circle class="point" cx="540.0" cy="0.8" r="4" />
    </g>
    <g class="label">
      <text x="0" y="350" text-anchor="middle">-6</text>
      <text x="45" y="350" text-anchor="middle">-5</text>
      <text x="90" y="350" text-anchor="middle">-4</text>
      <text x="135" y="350" text-anchor="middle">-3</text>
      <text x="180" y="350" text-anchor="middle">-2</text>
      <text x="225" y="350" text-anchor="middle">-1</text>
      <text x="270" y="350" text-anchor="middle">0</text>
      <text x="315" y="350" text-anchor="middle">1</text>
      <text x="360" y="350" text-anchor="middle">2</text>
      <text x="405" y="350" text-anchor="middle">3</text>
      <text x="450" y="350" text-anchor="middle">4</text>
      <text x="495" y="350" text-anchor="middle">5</text>
      <text x="540" y="350" text-anchor="middle">6</text>
    </g>
    <g class="label">
      <text x="-20" y="330" text-anchor="end">0.0</text>
      <text x="-20" y="297" text-anchor="end">0.1</text>
      <text x="-20" y="264" text-anchor="end">0.2</text>
      <text x="-20" y="231" text-anchor="end">0.3</text>
      <text x="-20" y="198" text-anchor="end">0.4</text>
      <text x="-20" y="165" text-anchor="end">0.5</text>
      <text x="-20" y="132" text-anchor="end">0.6</text>
      <text x="-20" y="99" text-anchor="end">0.7</text>
      <text x="-20" y="66" text-anchor="end">0.8</text>
      <text x="-20" y="33" text-anchor="end">0.9</text>
      <text x="-20" y="0" text-anchor="end">1.0</text>
    </g>
    <text class="label" x="560" y="370" text-anchor="end">z</text>
    <text class="label" x="-40" y="0" text-anchor="end" dominant-baseline="hanging">p</text>

    <!-- Legende -->
    <g transform="translate(370,250)">
      <rect x="0" y="0" width="180" height="70" fill="white" stroke="#ccc" stroke-width="1" />
      <line x1="12" y1="20" x2="42" y2="20" class="curve" />
      <text class="label" x="55" y="23" text-anchor="start">Sigmoid-Kurve</text>
      <circle class="point" cx="27" cy="42" r="4" />
      <text class="label" x="55" y="46" text-anchor="start">Punkte z = -6..6</text>
      <line x1="12" y1="60" x2="42" y2="60" class="helper" />
      <text class="label" x="55" y="63" text-anchor="start">Hilfslinie p = 0.5</text>
    </g>
  </g>
</svg>
