<svg xmlns="http://www.w3.org/2000/svg" width="640" height="400" viewBox="0 0 640 400" role="img" aria-label="Koordinatengitter für Sigmoid: x von -6 bis 6, y von 0 bis 1">
  <style>
    .grid { stroke: #ddd; stroke-width: 1; }
    .grid-minor { stroke: #eee; stroke-width: 0.5; }
    .grid-micro { stroke: #f3f3f3; stroke-width: 0.4; }
    .grid-nano { stroke: #f8f8f8; stroke-width: 0.3; }
    .axis { stroke: #000; stroke-width: 2; }
    .tick { stroke: #000; stroke-width: 1; }
    .label { font-family: sans-serif; font-size: 12px; fill: #000; }
  </style>
  <rect x="0" y="0" width="640" height="400" fill="white" />
  <g transform="translate(50,20)">
    <g>
      <g class="grid-nano">
        <!-- horizontale Hilfslinien alle 0.01 (noch feiner, ohne Beschriftung) -->
        <!-- generated at 3.3 px increments from 0.01*33 -->
        <line x1="0" y1="3.3" x2="540" y2="3.3" />
        <line x1="0" y1="6.6" x2="540" y2="6.6" />
        <line x1="0" y1="9.9" x2="540" y2="9.9" />
        <line x1="0" y1="13.2" x2="540" y2="13.2" />
        <line x1="0" y1="16.5" x2="540" y2="16.5" />
        <line x1="0" y1="19.8" x2="540" y2="19.8" />
        <line x1="0" y1="23.1" x2="540" y2="23.1" />
        <line x1="0" y1="26.4" x2="540" y2="26.4" />
        <line x1="0" y1="29.7" x2="540" y2="29.7" />
        <line x1="0" y1="33.0" x2="540" y2="33.0" />
        <!-- continue pattern every 3.3 px up to 330 -->
        <line x1="0" y1="36.3" x2="540" y2="36.3" />
        <line x1="0" y1="39.6" x2="540" y2="39.6" />
        <line x1="0" y1="42.9" x2="540" y2="42.9" />
        <line x1="0" y1="46.2" x2="540" y2="46.2" />
        <line x1="0" y1="49.5" x2="540" y2="49.5" />
        <line x1="0" y1="52.8" x2="540" y2="52.8" />
        <line x1="0" y1="56.1" x2="540" y2="56.1" />
        <line x1="0" y1="59.4" x2="540" y2="59.4" />
        <line x1="0" y1="62.7" x2="540" y2="62.7" />
        <line x1="0" y1="66.0" x2="540" y2="66.0" />
        <line x1="0" y1="69.3" x2="540" y2="69.3" />
        <line x1="0" y1="72.6" x2="540" y2="72.6" />
        <line x1="0" y1="75.9" x2="540" y2="75.9" />
        <line x1="0" y1="79.2" x2="540" y2="79.2" />
        <line x1="0" y1="82.5" x2="540" y2="82.5" />
        <line x1="0" y1="85.8" x2="540" y2="85.8" />
        <line x1="0" y1="89.1" x2="540" y2="89.1" />
        <line x1="0" y1="92.4" x2="540" y2="92.4" />
        <line x1="0" y1="95.7" x2="540" y2="95.7" />
        <line x1="0" y1="99.0" x2="540" y2="99.0" />
        <!-- truncated for brevity -->
      </g>
      <g class="grid-micro">
        <!-- horizontale Hilfslinien alle 0.01 (ohne Beschriftung) -->
        <line x1="0" y1="3.3" x2="540" y2="3.3" />
        <line x1="0" y1="6.6" x2="540" y2="6.6" />
        <line x1="0" y1="9.9" x2="540" y2="9.9" />
        <line x1="0" y1="13.2" x2="540" y2="13.2" />
        <line x1="0" y1="19.8" x2="540" y2="19.8" />
        <line x1="0" y1="23.1" x2="540" y2="23.1" />
        <line x1="0" y1="26.4" x2="540" y2="26.4" />
        <line x1="0" y1="29.7" x2="540" y2="29.7" />
        <line x1="0" y1="36.3" x2="540" y2="36.3" />
        <line x1="0" y1="39.6" x2="540" y2="39.6" />
        <line x1="0" y1="42.9" x2="540" y2="42.9" />
        <line x1="0" y1="46.2" x2="540" y2="46.2" />
        <line x1="0" y1="52.8" x2="540" y2="52.8" />
        <line x1="0" y1="56.1" x2="540" y2="56.1" />
        <line x1="0" y1="59.4" x2="540" y2="59.4" />
        <line x1="0" y1="62.7" x2="540" y2="62.7" />
        <line x1="0" y1="69.3" x2="540" y2="69.3" />
        <line x1="0" y1="72.6" x2="540" y2="72.6" />
        <line x1="0" y1="75.9" x2="540" y2="75.9" />
        <line x1="0" y1="79.2" x2="540" y2="79.2" />
        <line x1="0" y1="85.8" x2="540" y2="85.8" />
        <line x1="0" y1="89.1" x2="540" y2="89.1" />
        <line x1="0" y1="92.4" x2="540" y2="92.4" />
        <line x1="0" y1="95.7" x2="540" y2="95.7" />
        <line x1="0" y1="102.3" x2="540" y2="102.3" />
        <line x1="0" y1="105.6" x2="540" y2="105.6" />
        <line x1="0" y1="108.9" x2="540" y2="108.9" />
        <line x1="0" y1="112.2" x2="540" y2="112.2" />
        <line x1="0" y1="118.8" x2="540" y2="118.8" />
        <line x1="0" y1="122.1" x2="540" y2="122.1" />
        <line x1="0" y1="125.4" x2="540" y2="125.4" />
        <line x1="0" y1="128.7" x2="540" y2="128.7" />
        <line x1="0" y1="135.3" x2="540" y2="135.3" />
        <line x1="0" y1="138.6" x2="540" y2="138.6" />
        <line x1="0" y1="141.9" x2="540" y2="141.9" />
        <line x1="0" y1="145.2" x2="540" y2="145.2" />
        <line x1="0" y1="151.8" x2="540" y2="151.8" />
        <line x1="0" y1="155.1" x2="540" y2="155.1" />
        <line x1="0" y1="158.4" x2="540" y2="158.4" />
        <line x1="0" y1="161.7" x2="540" y2="161.7" />
        <line x1="0" y1="168.3" x2="540" y2="168.3" />
        <line x1="0" y1="171.6" x2="540" y2="171.6" />
        <line x1="0" y1="174.9" x2="540" y2="174.9" />
        <line x1="0" y1="178.2" x2="540" y2="178.2" />
        <line x1="0" y1="184.8" x2="540" y2="184.8" />
        <line x1="0" y1="188.1" x2="540" y2="188.1" />
        <line x1="0" y1="191.4" x2="540" y2="191.4" />
        <line x1="0" y1="194.7" x2="540" y2="194.7" />
        <line x1="0" y1="201.3" x2="540" y2="201.3" />
        <line x1="0" y1="204.6" x2="540" y2="204.6" />
        <line x1="0" y1="207.9" x2="540" y2="207.9" />
        <line x1="0" y1="211.2" x2="540" y2="211.2" />
        <line x1="0" y1="217.8" x2="540" y2="217.8" />
        <line x1="0" y1="221.1" x2="540" y2="221.1" />
        <line x1="0" y1="224.4" x2="540" y2="224.4" />
        <line x1="0" y1="227.7" x2="540" y2="227.7" />
        <line x1="0" y1="234.3" x2="540" y2="234.3" />
        <line x1="0" y1="237.6" x2="540" y2="237.6" />
        <line x1="0" y1="240.9" x2="540" y2="240.9" />
        <line x1="0" y1="244.2" x2="540" y2="244.2" />
        <line x1="0" y1="250.8" x2="540" y2="250.8" />
        <line x1="0" y1="254.1" x2="540" y2="254.1" />
        <line x1="0" y1="257.4" x2="540" y2="257.4" />
        <line x1="0" y1="260.7" x2="540" y2="260.7" />
        <line x1="0" y1="267.3" x2="540" y2="267.3" />
        <line x1="0" y1="270.6" x2="540" y2="270.6" />
        <line x1="0" y1="273.9" x2="540" y2="273.9" />
        <line x1="0" y1="277.2" x2="540" y2="277.2" />
        <line x1="0" y1="283.8" x2="540" y2="283.8" />
        <line x1="0" y1="287.1" x2="540" y2="287.1" />
        <line x1="0" y1="290.4" x2="540" y2="290.4" />
        <line x1="0" y1="293.7" x2="540" y2="293.7" />
        <line x1="0" y1="300.3" x2="540" y2="300.3" />
        <line x1="0" y1="303.6" x2="540" y2="303.6" />
        <line x1="0" y1="306.9" x2="540" y2="306.9" />
        <line x1="0" y1="310.2" x2="540" y2="310.2" />
        <line x1="0" y1="316.8" x2="540" y2="316.8" />
        <line x1="0" y1="320.1" x2="540" y2="320.1" />
        <line x1="0" y1="323.4" x2="540" y2="323.4" />
        <line x1="0" y1="326.7" x2="540" y2="326.7" />
      </g>
      <g class="grid-minor">
        <!-- horizontale Hilfslinien alle 0.05 -->
        <line x1="0" y1="16.5" x2="540" y2="16.5" />
        <line x1="0" y1="49.5" x2="540" y2="49.5" />
        <line x1="0" y1="82.5" x2="540" y2="82.5" />
        <line x1="0" y1="115.5" x2="540" y2="115.5" />
        <line x1="0" y1="148.5" x2="540" y2="148.5" />
        <line x1="0" y1="181.5" x2="540" y2="181.5" />
        <line x1="0" y1="214.5" x2="540" y2="214.5" />
        <line x1="0" y1="247.5" x2="540" y2="247.5" />
        <line x1="0" y1="280.5" x2="540" y2="280.5" />
        <line x1="0" y1="313.5" x2="540" y2="313.5" />
      </g>
      <g class="grid">
        <line x1="0" y1="0" x2="540" y2="0" />
        <line x1="0" y1="33" x2="540" y2="33" />
        <line x1="0" y1="66" x2="540" y2="66" />
        <line x1="0" y1="99" x2="540" y2="99" />
        <line x1="0" y1="132" x2="540" y2="132" />
        <line x1="0" y1="165" x2="540" y2="165" />
        <line x1="0" y1="198" x2="540" y2="198" />
        <line x1="0" y1="231" x2="540" y2="231" />
        <line x1="0" y1="264" x2="540" y2="264" />
        <line x1="0" y1="297" x2="540" y2="297" />
        <line x1="0" y1="330" x2="540" y2="330" />
      </g>
    </g>
    <g class="grid-minor">
      <!-- vertikale Hilfslinien alle 0.5 -->
      <line x1="22.5" y1="0" x2="22.5" y2="330" />
      <line x1="67.5" y1="0" x2="67.5" y2="330" />
      <line x1="112.5" y1="0" x2="112.5" y2="330" />
      <line x1="157.5" y1="0" x2="157.5" y2="330" />
      <line x1="202.5" y1="0" x2="202.5" y2="330" />
      <line x1="247.5" y1="0" x2="247.5" y2="330" />
      <line x1="292.5" y1="0" x2="292.5" y2="330" />
      <line x1="337.5" y1="0" x2="337.5" y2="330" />
      <line x1="382.5" y1="0" x2="382.5" y2="330" />
      <line x1="427.5" y1="0" x2="427.5" y2="330" />
      <line x1="472.5" y1="0" x2="472.5" y2="330" />
      <line x1="517.5" y1="0" x2="517.5" y2="330" />
    </g>
    <g class="grid">
      <line x1="0" y1="0" x2="0" y2="330" />
      <line x1="45" y1="0" x2="45" y2="330" />
      <line x1="90" y1="0" x2="90" y2="330" />
      <line x1="135" y1="0" x2="135" y2="330" />
      <line x1="180" y1="0" x2="180" y2="330" />
      <line x1="225" y1="0" x2="225" y2="330" />
      <line x1="270" y1="0" x2="270" y2="330" />
      <line x1="315" y1="0" x2="315" y2="330" />
      <line x1="360" y1="0" x2="360" y2="330" />
      <line x1="405" y1="0" x2="405" y2="330" />
      <line x1="450" y1="0" x2="450" y2="330" />
      <line x1="495" y1="0" x2="495" y2="330" />
      <line x1="540" y1="0" x2="540" y2="330" />
    </g>

    <line class="axis" x1="0" y1="330" x2="540" y2="330" />
    <line class="axis" x1="270" y1="0" x2="270" y2="330" />

    <g class="label">
      <text x="0" y="350" text-anchor="middle">-6</text>
      <text x="45" y="350" text-anchor="middle">-5</text>
      <text x="90" y="350" text-anchor="middle">-4</text>
      <text x="135" y="350" text-anchor="middle">-3</text>
      <text x="180" y="350" text-anchor="middle">-2</text>
      <text x="225" y="350" text-anchor="middle">-1</text>
      <text x="270" y="350" text-anchor="middle">0</text>
      <text x="315" y="350" text-anchor="middle">1</text>
      <text x="360" y="350" text-anchor="middle">2</text>
      <text x="405" y="350" text-anchor="middle">3</text>
      <text x="450" y="350" text-anchor="middle">4</text>
      <text x="495" y="350" text-anchor="middle">5</text>
      <text x="540" y="350" text-anchor="middle">6</text>
    </g>

    <g class="label">
      <text x="-20" y="330" text-anchor="end">0.0</text>
      <text x="-20" y="297" text-anchor="end">0.1</text>
      <text x="-20" y="264" text-anchor="end">0.2</text>
      <text x="-20" y="231" text-anchor="end">0.3</text>
      <text x="-20" y="198" text-anchor="end">0.4</text>
      <text x="-20" y="165" text-anchor="end">0.5</text>
      <text x="-20" y="132" text-anchor="end">0.6</text>
      <text x="-20" y="99" text-anchor="end">0.7</text>
      <text x="-20" y="66" text-anchor="end">0.8</text>
      <text x="-20" y="33" text-anchor="end">0.9</text>
      <text x="-20" y="0" text-anchor="end">1.0</text>
    </g>

    <text class="label" x="560" y="370" text-anchor="end">z</text>
    <text class="label" x="-40" y="0" text-anchor="end" dominant-baseline="hanging">p</text>
  </g>
</svg>
