<svg xmlns="http://www.w3.org/2000/svg" width="640" height="400" viewBox="0 0 640 400" role="img" aria-label="Sigmoid-Kurven der Modelle A und B mit Datenpunkten und Projektionen">
  <style>
    .axis { stroke: #222; stroke-width: 1; }
    .grid { stroke: #ccc; stroke-width: 0.5; }
    .grid-fine { stroke: #eee; stroke-width: 0.4; }
    .label { font-family: Arial, sans-serif; font-size: 12px; fill: #222; }
    .legend { font-family: Arial, sans-serif; fill: #222; }
    </style>
  <rect x="0" y="0" width="640" height="400" fill="white"/>
  <g>
    <line class="grid" x1="60" y1="330.0" x2="580" y2="330.0"/>
    <text class="label" x="54" y="334.0" text-anchor="end">0.0</text>
    <line class="grid" x1="60" y1="300.0" x2="580" y2="300.0"/>
    <text class="label" x="54" y="304.0" text-anchor="end">0.1</text>
    <line class="grid" x1="60" y1="270.0" x2="580" y2="270.0"/>
    <text class="label" x="54" y="274.0" text-anchor="end">0.2</text>
    <line class="grid" x1="60" y1="240.0" x2="580" y2="240.0"/>
    <text class="label" x="54" y="244.0" text-anchor="end">0.3</text>
    <line class="grid" x1="60" y1="210.0" x2="580" y2="210.0"/>
    <text class="label" x="54" y="214.0" text-anchor="end">0.4</text>
    <line class="grid" x1="60" y1="180.0" x2="580" y2="180.0"/>
    <text class="label" x="54" y="184.0" text-anchor="end">0.5</text>
    <line class="grid" x1="60" y1="149.99999999999997" x2="580" y2="149.99999999999997"/>
    <text class="label" x="54" y="153.99999999999997" text-anchor="end">0.6</text>
    <line class="grid" x1="60" y1="119.99999999999999" x2="580" y2="119.99999999999999"/>
    <text class="label" x="54" y="123.99999999999999" text-anchor="end">0.7</text>
    <line class="grid" x1="60" y1="89.99999999999999" x2="580" y2="89.99999999999999"/>
    <text class="label" x="54" y="93.99999999999999" text-anchor="end">0.8</text>
    <line class="grid" x1="60" y1="59.99999999999999" x2="580" y2="59.99999999999999"/>
    <text class="label" x="54" y="63.99999999999999" text-anchor="end">0.9</text>
    <line class="grid" x1="60" y1="30.0" x2="580" y2="30.0"/>
    <text class="label" x="54" y="34.0" text-anchor="end">1.0</text>
    <line class="grid" x1="60.0" y1="30" x2="60.0" y2="330"/>
    <text class="label" x="60.0" y="350" text-anchor="middle">-3</text>
    <line class="grid" x1="164.0" y1="30" x2="164.0" y2="330"/>
    <text class="label" x="164.0" y="350" text-anchor="middle">-1</text>
    <line class="grid" x1="268.0" y1="30" x2="268.0" y2="330"/>
    <text class="label" x="268.0" y="350" text-anchor="middle">1</text>
    <line class="grid" x1="372.0" y1="30" x2="372.0" y2="330"/>
    <text class="label" x="372.0" y="350" text-anchor="middle">3</text>
    <line class="grid" x1="476.0" y1="30" x2="476.0" y2="330"/>
    <text class="label" x="476.0" y="350" text-anchor="middle">5</text>
    <line class="grid" x1="580.0" y1="30" x2="580.0" y2="330"/>
    <text class="label" x="580.0" y="350" text-anchor="middle">7</text>
  </g>
  <line class="axis" x1="60" y1="330" x2="580" y2="330"/>
  <line class="axis" x1="60" y1="30" x2="60" y2="330"/>
  <text class="label" x="320.0" y="390" text-anchor="middle">x</text>
  <text class="label" x="20" y="200.0" text-anchor="middle" transform="rotate(-90 20 200.0)">p</text>
  <line x1="60" y1="180.0" x2="580" y2="180.0" stroke="#888" stroke-width="1" stroke-dasharray="4 3"/>
  <rect x="60" y="30" width="249.60000000000002" height="300" fill="#2a7de1" opacity="0"/>
  <rect x="309.6" y="30" width="270.4" height="300" fill="#2a7de1" opacity="0"/>
  <rect x="60" y="30" width="263.7142857142857" height="300" fill="#e14d2a" opacity="0"/>
  <rect x="323.7142857142857" y="30" width="256.2857142857143" height="300" fill="#e14d2a" opacity="0"/>
  <line x1="309.6" y1="30" x2="309.6" y2="330" stroke="#2a7de1" stroke-width="1.2" opacity="0.4"/>
  <line x1="323.7142857142857" y1="30" x2="323.7142857142857" y2="330" stroke="#e14d2a" stroke-width="1.2" opacity="0.4"/>
  <polyline fill="none" stroke="#2a7de1" stroke-width="2" stroke-linecap="round" stroke-linejoin="round" points="60.0,327.6 61.0,327.5 62.1,327.5 63.1,327.4 64.2,327.3 65.2,327.3 66.3,327.2 67.3,327.2 68.3,327.1 69.4,327.1 70.4,327.0 71.5,327.0 72.5,326.9 73.5,326.8 74.6,326.8 75.6,326.7 76.7,326.6 77.7,326.6 78.8,326.5 79.8,326.4 80.8,326.4 81.9,326.3 82.9,326.2 84.0,326.1 85.0,326.1 86.1,326.0 87.1,325.9 88.1,325.8 89.2,325.7 90.2,325.6 91.3,325.6 92.3,325.5 93.3,325.4 94.4,325.3 95.4,325.2 96.5,325.1 97.5,325.0 98.6,324.9 99.6,324.8 100.6,324.7 101.7,324.6 102.7,324.5 103.8,324.4 104.8,324.3 105.9,324.2 106.9,324.0 107.9,323.9 109.0,323.8 110.0,323.7 111.1,323.6 112.1,323.4 113.1,323.3 114.2,323.2 115.2,323.0 116.3,322.9 117.3,322.7 118.4,322.6 119.4,322.5 120.4,322.3 121.5,322.2 122.5,322.0 123.6,321.8 124.6,321.7 125.7,321.5 126.7,321.4 127.7,321.2 128.8,321.0 129.8,320.8 130.9,320.7 131.9,320.5 132.9,320.3 134.0,320.1 135.0,319.9 136.1,319.7 137.1,319.5 138.2,319.3 139.2,319.1 140.2,318.9 141.3,318.7 142.3,318.4 143.4,318.2 144.4,318.0 145.5,317.8 146.5,317.5 147.5,317.3 148.6,317.0 149.6,316.8 150.7,316.5 151.7,316.3 152.7,316.0 153.8,315.7 154.8,315.4 155.9,315.2 156.9,314.9 158.0,314.6 159.0,314.3 160.0,314.0 161.1,313.7 162.1,313.4 163.2,313.1 164.2,312.7 165.3,312.4 166.3,312.1 167.3,311.7 168.4,311.4 169.4,311.0 170.5,310.7 171.5,310.3 172.5,309.9 173.6,309.6 174.6,309.2 175.7,308.8 176.7,308.4 177.8,308.0 178.8,307.6 179.8,307.1 180.9,306.7 181.9,306.3 183.0,305.8 184.0,305.4 185.1,304.9 186.1,304.5 187.1,304.0 188.2,303.5 189.2,303.0 190.3,302.5 191.3,302.0 192.3,301.5 193.4,301.0 194.4,300.5 195.5,299.9 196.5,299.4 197.6,298.8 198.6,298.3 199.6,297.7 200.7,297.1 201.7,296.5 202.8,295.9 203.8,295.3 204.8,294.7 205.9,294.1 206.9,293.4 208.0,292.8 209.0,292.1 210.1,291.4 211.1,290.8 212.1,290.1 213.2,289.4 214.2,288.7 215.3,288.0 216.3,287.2 217.4,286.5 218.4,285.7 219.4,285.0 220.5,284.2 221.5,283.4 222.6,282.6 223.6,281.8 224.6,281.0 225.7,280.2 226.7,279.3 227.8,278.5 228.8,277.6 229.9,276.8 230.9,275.9 231.9,275.0 233.0,274.1 234.0,273.2 235.1,272.2 236.1,271.3 237.2,270.3 238.2,269.4 239.2,268.4 240.3,267.4 241.3,266.4 242.4,265.4 243.4,264.4 244.4,263.3 245.5,262.3 246.5,261.2 247.6,260.2 248.6,259.1 249.7,258.0 250.7,256.9 251.7,255.8 252.8,254.7 253.8,253.5 254.9,252.4 255.9,251.2 257.0,250.0 258.0,248.9 259.0,247.7 260.1,246.5 261.1,245.3 262.2,244.0 263.2,242.8 264.2,241.6 265.3,240.3 266.3,239.0 267.4,237.8 268.4,236.5 269.5,235.2 270.5,233.9 271.5,232.6 272.6,231.2 273.6,229.9 274.7,228.6 275.7,227.2 276.8,225.9 277.8,224.5 278.8,223.1 279.9,221.7 280.9,220.3 282.0,218.9 283.0,217.5 284.0,216.1 285.1,214.7 286.1,213.3 287.2,211.9 288.2,210.4 289.3,209.0 290.3,207.5 291.3,206.1 292.4,204.6 293.4,203.1 294.5,201.7 295.5,200.2 296.6,198.7 297.6,197.2 298.6,195.8 299.7,194.3 300.7,192.8 301.8,191.3 302.8,189.8 303.8,188.3 304.9,186.8 305.9,185.3 307.0,183.8 308.0,182.3 309.1,180.8 310.1,179.3 311.1,177.8 312.2,176.3 313.2,174.8 314.3,173.3 315.3,171.8 316.4,170.3 317.4,168.8 318.4,167.3 319.5,165.8 320.5,164.3 321.6,162.8 322.6,161.3 323.6,159.9 324.7,158.4 325.7,156.9 326.8,155.5 327.8,154.0 328.9,152.5 329.9,151.1 330.9,149.6 332.0,148.2 333.0,146.8 334.1,145.3 335.1,143.9 336.2,142.5 337.2,141.1 338.2,139.7 339.3,138.3 340.3,136.9 341.4,135.6 342.4,134.2 343.4,132.8 344.5,131.5 345.5,130.1 346.6,128.8 347.6,127.5 348.7,126.2 349.7,124.9 350.7,123.6 351.8,122.3 352.8,121.0 353.9,119.7 354.9,118.5 356.0,117.2 357.0,116.0 358.0,114.8 359.1,113.6 360.1,112.4 361.2,111.2 362.2,110.0 363.2,108.8 364.3,107.7 365.3,106.5 366.4,105.4 367.4,104.3 368.5,103.1 369.5,102.0 370.5,101.0 371.6,99.9 372.6,98.8 373.7,97.7 374.7,96.7 375.8,95.7 376.8,94.6 377.8,93.6 378.9,92.6 379.9,91.6 381.0,90.7 382.0,89.7 383.0,88.8 384.1,87.8 385.1,86.9 386.2,86.0 387.2,85.1 388.3,84.2 389.3,83.3 390.3,82.4 391.4,81.5 392.4,80.7 393.5,79.9 394.5,79.0 395.6,78.2 396.6,77.4 397.6,76.6 398.7,75.8 399.7,75.1 400.8,74.3 401.8,73.5 402.8,72.8 403.9,72.1 404.9,71.4 406.0,70.6 407.0,69.9 408.1,69.3 409.1,68.6 410.1,67.9 411.2,67.3 412.2,66.6 413.3,66.0 414.3,65.3 415.4,64.7 416.4,64.1 417.4,63.5 418.5,62.9 419.5,62.3 420.6,61.8 421.6,61.2 422.6,60.6 423.7,60.1 424.7,59.5 425.8,59.0 426.8,58.5 427.9,58.0 428.9,57.5 429.9,57.0 431.0,56.5 432.0,56.0 433.1,55.5 434.1,55.1 435.2,54.6 436.2,54.2 437.2,53.7 438.3,53.3 439.3,52.9 440.4,52.5 441.4,52.0 442.4,51.6 443.5,51.2 444.5,50.8 445.6,50.5 446.6,50.1 447.7,49.7 448.7,49.3 449.7,49.0 450.8,48.6 451.8,48.3 452.9,47.9 453.9,47.6 454.9,47.3 456.0,47.0 457.0,46.6 458.1,46.3 459.1,46.0 460.2,45.7 461.2,45.4 462.2,45.1 463.3,44.8 464.3,44.6 465.4,44.3 466.4,44.0 467.5,43.8 468.5,43.5 469.5,43.2 470.6,43.0 471.6,42.7 472.7,42.5 473.7,42.3 474.7,42.0 475.8,41.8 476.8,41.6 477.9,41.3 478.9,41.1 480.0,40.9 481.0,40.7 482.0,40.5 483.1,40.3 484.1,40.1 485.2,39.9 486.2,39.7 487.3,39.5 488.3,39.4 489.3,39.2 490.4,39.0 491.4,38.8 492.5,38.7 493.5,38.5 494.5,38.3 495.6,38.2 496.6,38.0 497.7,37.8 498.7,37.7 499.8,37.5 500.8,37.4 501.8,37.3 502.9,37.1 503.9,37.0 505.0,36.8 506.0,36.7 507.1,36.6 508.1,36.5 509.1,36.3 510.2,36.2 511.2,36.1 512.3,36.0 513.3,35.9 514.3,35.7 515.4,35.6 516.4,35.5 517.5,35.4 518.5,35.3 519.6,35.2 520.6,35.1 521.6,35.0 522.7,34.9 523.7,34.8 524.8,34.7 525.8,34.6 526.9,34.5 527.9,34.4 528.9,34.4 530.0,34.3 531.0,34.2 532.1,34.1 533.1,34.0 534.1,33.9 535.2,33.9 536.2,33.8 537.3,33.7 538.3,33.6 539.4,33.6 540.4,33.5 541.4,33.4 542.5,33.4 543.5,33.3 544.6,33.2 545.6,33.2 546.7,33.1 547.7,33.0 548.7,33.0 549.8,32.9 550.8,32.9 551.9,32.8 552.9,32.8 553.9,32.7 555.0,32.7 556.0,32.6 557.1,32.6 558.1,32.5 559.2,32.5 560.2,32.4 561.2,32.4 562.3,32.3 563.3,32.3 564.4,32.2 565.4,32.2 566.5,32.1 567.5,32.1 568.5,32.0 569.6,32.0 570.6,32.0 571.7,31.9 572.7,31.9 573.7,31.9 574.8,31.8 575.8,31.8 576.9,31.7 577.9,31.7 579.0,31.7 580.0,31.6"/>
  <polyline fill="none" stroke="#e14d2a" stroke-width="2" stroke-linecap="round" stroke-linejoin="round" points="60.0,329.8 61.0,329.7 62.1,329.7 63.1,329.7 64.2,329.7 65.2,329.7 66.3,329.7 67.3,329.7 68.3,329.7 69.4,329.7 70.4,329.7 71.5,329.7 72.5,329.7 73.5,329.6 74.6,329.6 75.6,329.6 76.7,329.6 77.7,329.6 78.8,329.6 79.8,329.6 80.8,329.6 81.9,329.6 82.9,329.5 84.0,329.5 85.0,329.5 86.1,329.5 87.1,329.5 88.1,329.5 89.2,329.5 90.2,329.4 91.3,329.4 92.3,329.4 93.3,329.4 94.4,329.4 95.4,329.4 96.5,329.3 97.5,329.3 98.6,329.3 99.6,329.3 100.6,329.3 101.7,329.2 102.7,329.2 103.8,329.2 104.8,329.2 105.9,329.2 106.9,329.1 107.9,329.1 109.0,329.1 110.0,329.1 111.1,329.0 112.1,329.0 113.1,329.0 114.2,328.9 115.2,328.9 116.3,328.9 117.3,328.8 118.4,328.8 119.4,328.8 120.4,328.7 121.5,328.7 122.5,328.7 123.6,328.6 124.6,328.6 125.7,328.6 126.7,328.5 127.7,328.5 128.8,328.4 129.8,328.4 130.9,328.3 131.9,328.3 132.9,328.2 134.0,328.2 135.0,328.1 136.1,328.1 137.1,328.0 138.2,328.0 139.2,327.9 140.2,327.9 141.3,327.8 142.3,327.7 143.4,327.7 144.4,327.6 145.5,327.5 146.5,327.5 147.5,327.4 148.6,327.3 149.6,327.3 150.7,327.2 151.7,327.1 152.7,327.0 153.8,326.9 154.8,326.9 155.9,326.8 156.9,326.7 158.0,326.6 159.0,326.5 160.0,326.4 161.1,326.3 162.1,326.2 163.2,326.1 164.2,326.0 165.3,325.8 166.3,325.7 167.3,325.6 168.4,325.5 169.4,325.4 170.5,325.2 171.5,325.1 172.5,325.0 173.6,324.8 174.6,324.7 175.7,324.5 176.7,324.4 177.8,324.2 178.8,324.1 179.8,323.9 180.9,323.7 181.9,323.5 183.0,323.4 184.0,323.2 185.1,323.0 186.1,322.8 187.1,322.6 188.2,322.4 189.2,322.2 190.3,322.0 191.3,321.7 192.3,321.5 193.4,321.3 194.4,321.0 195.5,320.8 196.5,320.5 197.6,320.3 198.6,320.0 199.6,319.7 200.7,319.5 201.7,319.2 202.8,318.9 203.8,318.6 204.8,318.3 205.9,317.9 206.9,317.6 208.0,317.3 209.0,316.9 210.1,316.6 211.1,316.2 212.1,315.8 213.2,315.4 214.2,315.0 215.3,314.6 216.3,314.2 217.4,313.8 218.4,313.4 219.4,312.9 220.5,312.5 221.5,312.0 222.6,311.5 223.6,311.0 224.6,310.5 225.7,310.0 226.7,309.5 227.8,308.9 228.8,308.4 229.9,307.8 230.9,307.2 231.9,306.6 233.0,306.0 234.0,305.4 235.1,304.7 236.1,304.1 237.2,303.4 238.2,302.7 239.2,302.0 240.3,301.3 241.3,300.6 242.4,299.8 243.4,299.0 244.4,298.3 245.5,297.4 246.5,296.6 247.6,295.8 248.6,294.9 249.7,294.0 250.7,293.1 251.7,292.2 252.8,291.3 253.8,290.3 254.9,289.4 255.9,288.4 257.0,287.3 258.0,286.3 259.0,285.3 260.1,284.2 261.1,283.1 262.2,282.0 263.2,280.8 264.2,279.6 265.3,278.5 266.3,277.3 267.4,276.0 268.4,274.8 269.5,273.5 270.5,272.2 271.5,270.9 272.6,269.5 273.6,268.2 274.7,266.8 275.7,265.4 276.8,263.9 277.8,262.5 278.8,261.0 279.9,259.5 280.9,258.0 282.0,256.4 283.0,254.9 284.0,253.3 285.1,251.6 286.1,250.0 287.2,248.4 288.2,246.7 289.3,245.0 290.3,243.3 291.3,241.5 292.4,239.8 293.4,238.0 294.5,236.2 295.5,234.4 296.6,232.5 297.6,230.7 298.6,228.8 299.7,226.9 300.7,225.0 301.8,223.1 302.8,221.1 303.8,219.2 304.9,217.2 305.9,215.2 307.0,213.2 308.0,211.2 309.1,209.2 310.1,207.2 311.1,205.1 312.2,203.1 313.2,201.0 314.3,199.0 315.3,196.9 316.4,194.8 317.4,192.7 318.4,190.6 319.5,188.5 320.5,186.4 321.6,184.3 322.6,182.2 323.6,180.1 324.7,178.0 325.7,175.9 326.8,173.8 327.8,171.7 328.9,169.6 329.9,167.5 330.9,165.5 332.0,163.4 333.0,161.3 334.1,159.2 335.1,157.2 336.2,155.1 337.2,153.1 338.2,151.0 339.3,149.0 340.3,147.0 341.4,145.0 342.4,143.0 343.4,141.1 344.5,139.1 345.5,137.2 346.6,135.2 347.6,133.3 348.7,131.4 349.7,129.6 350.7,127.7 351.8,125.9 352.8,124.1 353.9,122.3 354.9,120.5 356.0,118.7 357.0,117.0 358.0,115.2 359.1,113.5 360.1,111.9 361.2,110.2 362.2,108.6 363.2,106.9 364.3,105.4 365.3,103.8 366.4,102.2 367.4,100.7 368.5,99.2 369.5,97.7 370.5,96.3 371.6,94.8 372.6,93.4 373.7,92.0 374.7,90.6 375.8,89.3 376.8,88.0 377.8,86.7 378.9,85.4 379.9,84.1 381.0,82.9 382.0,81.7 383.0,80.5 384.1,79.3 385.1,78.2 386.2,77.1 387.2,76.0 388.3,74.9 389.3,73.8 390.3,72.8 391.4,71.8 392.4,70.8 393.5,69.8 394.5,68.8 395.6,67.9 396.6,67.0 397.6,66.1 398.7,65.2 399.7,64.3 400.8,63.5 401.8,62.7 402.8,61.9 403.9,61.1 404.9,60.3 406.0,59.5 407.0,58.8 408.1,58.1 409.1,57.4 410.1,56.7 411.2,56.0 412.2,55.3 413.3,54.7 414.3,54.1 415.4,53.5 416.4,52.9 417.4,52.3 418.5,51.7 419.5,51.1 420.6,50.6 421.6,50.1 422.6,49.5 423.7,49.0 424.7,48.5 425.8,48.1 426.8,47.6 427.9,47.1 428.9,46.7 429.9,46.3 431.0,45.8 432.0,45.4 433.1,45.0 434.1,44.6 435.2,44.2 436.2,43.8 437.2,43.5 438.3,43.1 439.3,42.8 440.4,42.4 441.4,42.1 442.4,41.8 443.5,41.5 444.5,41.2 445.6,40.9 446.6,40.6 447.7,40.3 448.7,40.0 449.7,39.8 450.8,39.5 451.8,39.2 452.9,39.0 453.9,38.7 454.9,38.5 456.0,38.3 457.0,38.1 458.1,37.8 459.1,37.6 460.2,37.4 461.2,37.2 462.2,37.0 463.3,36.8 464.3,36.7 465.4,36.5 466.4,36.3 467.5,36.1 468.5,36.0 469.5,35.8 470.6,35.6 471.6,35.5 472.7,35.3 473.7,35.2 474.7,35.1 475.8,34.9 476.8,34.8 477.9,34.7 478.9,34.5 480.0,34.4 481.0,34.3 482.0,34.2 483.1,34.1 484.1,33.9 485.2,33.8 486.2,33.7 487.3,33.6 488.3,33.5 489.3,33.4 490.4,33.3 491.4,33.2 492.5,33.2 493.5,33.1 494.5,33.0 495.6,32.9 496.6,32.8 497.7,32.7 498.7,32.7 499.8,32.6 500.8,32.5 501.8,32.5 502.9,32.4 503.9,32.3 505.0,32.3 506.0,32.2 507.1,32.1 508.1,32.1 509.1,32.0 510.2,32.0 511.2,31.9 512.3,31.9 513.3,31.8 514.3,31.8 515.4,31.7 516.4,31.7 517.5,31.6 518.5,31.6 519.6,31.5 520.6,31.5 521.6,31.4 522.7,31.4 523.7,31.4 524.8,31.3 525.8,31.3 526.9,31.3 527.9,31.2 528.9,31.2 530.0,31.2 531.0,31.1 532.1,31.1 533.1,31.1 534.1,31.0 535.2,31.0 536.2,31.0 537.3,31.0 538.3,30.9 539.4,30.9 540.4,30.9 541.4,30.9 542.5,30.8 543.5,30.8 544.6,30.8 545.6,30.8 546.7,30.7 547.7,30.7 548.7,30.7 549.8,30.7 550.8,30.7 551.9,30.6 552.9,30.6 553.9,30.6 555.0,30.6 556.0,30.6 557.1,30.6 558.1,30.5 559.2,30.5 560.2,30.5 561.2,30.5 562.3,30.5 563.3,30.5 564.4,30.5 565.4,30.4 566.5,30.4 567.5,30.4 568.5,30.4 569.6,30.4 570.6,30.4 571.7,30.4 572.7,30.4 573.7,30.4 574.8,30.3 575.8,30.3 576.9,30.3 577.9,30.3 579.0,30.3 580.0,30.3"/>
  <g stroke="#999" stroke-width="1" stroke-dasharray="2 2" opacity="0.6">
    <line x1="242.0" y1="330" x2="242.0" y2="265.7504949127676" stroke="#2a7de1" stroke-dasharray="2 2"/>
    <line x1="242.0" y1="330" x2="242.0" y2="300.0748532640945" stroke="#e14d2a" stroke-dasharray="2 2"/>
    <line x1="268.0" y1="330" x2="268.0" y2="236.99234433828374" stroke="#2a7de1" stroke-dasharray="2 2"/>
    <line x1="268.0" y1="330" x2="268.0" y2="275.2723428580931" stroke="#e14d2a" stroke-dasharray="2 2"/>
    <line x1="294.0" y1="330" x2="294.0" y2="202.33275504349768" stroke="#2a7de1" stroke-dasharray="2 2"/>
    <line x1="294.0" y1="330" x2="294.0" y2="236.99234433828374" stroke="#e14d2a" stroke-dasharray="2 2"/>
    <line x1="320.0" y1="330" x2="320.0" y2="165.04980080625666" stroke="#2a7de1" stroke-dasharray="2 2"/>
    <line x1="320.0" y1="330" x2="320.0" y2="187.49375624368201" stroke="#e14d2a" stroke-dasharray="2 2"/>
    <line x1="346.0" y1="30" x2="346.0" y2="129.54366834955016" stroke="#2a7de1" stroke-dasharray="2 2"/>
    <line x1="346.0" y1="129.54366834955016" x2="346.0" y2="136.3031081322614" stroke="#e14d2a" stroke-dasharray="2 2"/>
    <line x1="372.0" y1="30" x2="372.0" y2="99.44256495029474" stroke="#2a7de1" stroke-dasharray="2 2"/>
    <line x1="372.0" y1="30" x2="372.0" y2="94.24950508723245" stroke="#e14d2a" stroke-dasharray="2 2"/>
  </g>
  <g fill="#666">
    <circle cx="242.0" cy="265.7504949127676" r="1.5" fill="#2a7de1"/>
    <circle cx="242.0" cy="300.0748532640945" r="1.5" fill="#e14d2a"/>
    <circle cx="268.0" cy="236.99234433828374" r="1.5" fill="#2a7de1"/>
    <circle cx="268.0" cy="275.2723428580931" r="1.5" fill="#e14d2a"/>
    <circle cx="294.0" cy="202.33275504349768" r="1.5" fill="#2a7de1"/>
    <circle cx="294.0" cy="236.99234433828374" r="1.5" fill="#e14d2a"/>
    <circle cx="320.0" cy="165.04980080625666" r="1.5" fill="#2a7de1"/>
    <circle cx="320.0" cy="187.49375624368201" r="1.5" fill="#e14d2a"/>
    <circle cx="346.0" cy="129.54366834955016" r="1.5" fill="#2a7de1"/>
    <circle cx="346.0" cy="136.3031081322614" r="1.5" fill="#e14d2a"/>
    <circle cx="372.0" cy="99.44256495029474" r="1.5" fill="#2a7de1"/>
    <circle cx="372.0" cy="94.24950508723245" r="1.5" fill="#e14d2a"/>
  </g>
  <g fill="white" stroke="#888" stroke-width="2">
    <rect x="307.6" y="178.0" width="4" height="4"/>
    <rect x="321.7142857142857" y="178.0" width="4" height="4"/>
  </g>
  <g>
    <circle cx="242.0" cy="330" r="4" fill="#7b8794" stroke="#222" stroke-width="1"/>
    <circle cx="268.0" cy="330" r="4" fill="#7b8794" stroke="#222" stroke-width="1"/>
    <circle cx="294.0" cy="330" r="4" fill="#7b8794" stroke="#222" stroke-width="1"/>
    <circle cx="320.0" cy="330" r="4" fill="#7b8794" stroke="#222" stroke-width="1"/>
    <circle cx="346.0" cy="30" r="4" fill="#2a9d8f" stroke="#222" stroke-width="1"/>
    <circle cx="372.0" cy="30" r="4" fill="#2a9d8f" stroke="#222" stroke-width="1"/>
  </g>
  <g>
    <rect x="70" y="40" width="160" height="95" fill="white" stroke="#ccc"/>
    <line x1="80" y1="48" x2="100" y2="48" stroke="#2a7de1" stroke-width="2" stroke-linecap="round"/>
    <text class="legend" x="110" y="51" font-size="8.5">Modell A: p = σ(1.0x - 1.8)</text>
    <line x1="80" y1="56" x2="100" y2="56" stroke="#e14d2a" stroke-width="2" stroke-linecap="round"/>
    <text class="legend" x="110" y="59" font-size="8.5">Modell B: p = σ(1.4x - 2.9)</text>
    <circle cx="90" cy="66" r="3" fill="#7b8794" stroke="#222" stroke-width="0.5"/>
    <text class="legend" x="110" y="69" font-size="8.5">Punkt: 0 (wahre Werte)</text>
    <circle cx="90" cy="76" r="3" fill="#2a9d8f" stroke="#222" stroke-width="0.5"/>
    <text class="legend" x="110" y="79" font-size="8.5">Punkt: 1 (wahre Werte)</text>
    <line x1="80" y1="88" x2="100" y2="88" stroke="#888" stroke-width="1" stroke-dasharray="2 2"/>
    <text class="legend" x="110" y="91" font-size="8.5">Schwelle p=0.5</text>
    <rect x="86" y="100" width="4" height="4" fill="white" stroke="#888" stroke-width="1.5"/>
    <text class="legend" x="110" y="103" font-size="8.5">Schwellenpunkt p=0.5</text>
    <line x1="80" y1="112" x2="100" y2="112" stroke="#2a7de1" stroke-width="1.2" opacity="0.6"/>
    <text class="legend" x="110" y="115" font-size="8.5">Schwellengrenze Modell A</text>
    <line x1="80" y1="122" x2="100" y2="122" stroke="#e14d2a" stroke-width="1.2" opacity="0.6"/>
    <text class="legend" x="110" y="125" font-size="8.5">Schwellengrenze Modell B</text>
  </g>
</svg>
