<svg xmlns="http://www.w3.org/2000/svg" width="640" height="400" viewBox="0 0 640 400" role="img" aria-label="Koordinatengitter für Sigmoid: x von -6 bis 6, y von 0 bis 1">
  <style>
    .grid { stroke: #ddd; stroke-width: 1; }
    .axis { stroke: #000; stroke-width: 2; }
    .tick { stroke: #000; stroke-width: 1; }
    .label { font-family: sans-serif; font-size: 12px; fill: #000; }
  </style>
  <rect x="0" y="0" width="640" height="400" fill="white" />
  <g transform="translate(50,20)">
    <g>
      <g class="grid">
        <line x1="0" y1="0" x2="540" y2="0" />
        <line x1="0" y1="33" x2="540" y2="33" />
        <line x1="0" y1="66" x2="540" y2="66" />
        <line x1="0" y1="99" x2="540" y2="99" />
        <line x1="0" y1="132" x2="540" y2="132" />
        <line x1="0" y1="165" x2="540" y2="165" />
        <line x1="0" y1="198" x2="540" y2="198" />
        <line x1="0" y1="231" x2="540" y2="231" />
        <line x1="0" y1="264" x2="540" y2="264" />
        <line x1="0" y1="297" x2="540" y2="297" />
        <line x1="0" y1="330" x2="540" y2="330" />
      </g>
    </g>
    <g class="grid">
      <line x1="0" y1="0" x2="0" y2="330" />
      <line x1="45" y1="0" x2="45" y2="330" />
      <line x1="90" y1="0" x2="90" y2="330" />
      <line x1="135" y1="0" x2="135" y2="330" />
      <line x1="180" y1="0" x2="180" y2="330" />
      <line x1="225" y1="0" x2="225" y2="330" />
      <line x1="270" y1="0" x2="270" y2="330" />
      <line x1="315" y1="0" x2="315" y2="330" />
      <line x1="360" y1="0" x2="360" y2="330" />
      <line x1="405" y1="0" x2="405" y2="330" />
      <line x1="450" y1="0" x2="450" y2="330" />
      <line x1="495" y1="0" x2="495" y2="330" />
      <line x1="540" y1="0" x2="540" y2="330" />
    </g>

    <line class="axis" x1="0" y1="330" x2="540" y2="330" />
    <line class="axis" x1="270" y1="0" x2="270" y2="330" />

    <g class="label">
      <text x="0" y="350" text-anchor="middle">-6</text>
      <text x="45" y="350" text-anchor="middle">-5</text>
      <text x="90" y="350" text-anchor="middle">-4</text>
      <text x="135" y="350" text-anchor="middle">-3</text>
      <text x="180" y="350" text-anchor="middle">-2</text>
      <text x="225" y="350" text-anchor="middle">-1</text>
      <text x="270" y="350" text-anchor="middle">0</text>
      <text x="315" y="350" text-anchor="middle">1</text>
      <text x="360" y="350" text-anchor="middle">2</text>
      <text x="405" y="350" text-anchor="middle">3</text>
      <text x="450" y="350" text-anchor="middle">4</text>
      <text x="495" y="350" text-anchor="middle">5</text>
      <text x="540" y="350" text-anchor="middle">6</text>
    </g>

    <g class="label">
      <text x="-20" y="330" text-anchor="end">0.0</text>
      <text x="-20" y="297" text-anchor="end">0.1</text>
      <text x="-20" y="264" text-anchor="end">0.2</text>
      <text x="-20" y="231" text-anchor="end">0.3</text>
      <text x="-20" y="198" text-anchor="end">0.4</text>
      <text x="-20" y="165" text-anchor="end">0.5</text>
      <text x="-20" y="132" text-anchor="end">0.6</text>
      <text x="-20" y="99" text-anchor="end">0.7</text>
      <text x="-20" y="66" text-anchor="end">0.8</text>
      <text x="-20" y="33" text-anchor="end">0.9</text>
      <text x="-20" y="0" text-anchor="end">1.0</text>
    </g>

    <text class="label" x="560" y="370" text-anchor="end">z</text>
    <text class="label" x="-40" y="0" text-anchor="end" dominant-baseline="hanging">p</text>
  </g>
</svg>
