<svg xmlns="http://www.w3.org/2000/svg" width="520" height="420" viewBox="0 0 520 420">
<rect x="0" y="0" width="100%" height="100%" fill="white"/>
<g stroke="#e6e6e6" stroke-width="1">
<line x1="82.00" y1="360.00" x2="82.00" y2="20.00"/>
<line x1="126.00" y1="360.00" x2="126.00" y2="20.00"/>
<line x1="170.00" y1="360.00" x2="170.00" y2="20.00"/>
<line x1="214.00" y1="360.00" x2="214.00" y2="20.00"/>
<line x1="258.00" y1="360.00" x2="258.00" y2="20.00"/>
<line x1="302.00" y1="360.00" x2="302.00" y2="20.00"/>
<line x1="346.00" y1="360.00" x2="346.00" y2="20.00"/>
<line x1="390.00" y1="360.00" x2="390.00" y2="20.00"/>
<line x1="434.00" y1="360.00" x2="434.00" y2="20.00"/>
<line x1="478.00" y1="360.00" x2="478.00" y2="20.00"/>
<line x1="60.00" y1="338.75" x2="500.00" y2="338.75"/>
<line x1="60.00" y1="296.25" x2="500.00" y2="296.25"/>
<line x1="60.00" y1="253.75" x2="500.00" y2="253.75"/>
<line x1="60.00" y1="211.25" x2="500.00" y2="211.25"/>
<line x1="60.00" y1="168.75" x2="500.00" y2="168.75"/>
<line x1="60.00" y1="126.25" x2="500.00" y2="126.25"/>
<line x1="60.00" y1="83.75" x2="500.00" y2="83.75"/>
<line x1="60.00" y1="41.25" x2="500.00" y2="41.25"/>
</g>
<g stroke="#cfcfcf" stroke-width="1.2">
<line x1="60.00" y1="360.00" x2="60.00" y2="20.00"/>
<line x1="104.00" y1="360.00" x2="104.00" y2="20.00"/>
<line x1="148.00" y1="360.00" x2="148.00" y2="20.00"/>
<line x1="192.00" y1="360.00" x2="192.00" y2="20.00"/>
<line x1="236.00" y1="360.00" x2="236.00" y2="20.00"/>
<line x1="280.00" y1="360.00" x2="280.00" y2="20.00"/>
<line x1="324.00" y1="360.00" x2="324.00" y2="20.00"/>
<line x1="368.00" y1="360.00" x2="368.00" y2="20.00"/>
<line x1="412.00" y1="360.00" x2="412.00" y2="20.00"/>
<line x1="456.00" y1="360.00" x2="456.00" y2="20.00"/>
<line x1="500.00" y1="360.00" x2="500.00" y2="20.00"/>
<line x1="60.00" y1="360.00" x2="500.00" y2="360.00"/>
<line x1="60.00" y1="317.50" x2="500.00" y2="317.50"/>
<line x1="60.00" y1="275.00" x2="500.00" y2="275.00"/>
<line x1="60.00" y1="232.50" x2="500.00" y2="232.50"/>
<line x1="60.00" y1="190.00" x2="500.00" y2="190.00"/>
<line x1="60.00" y1="147.50" x2="500.00" y2="147.50"/>
<line x1="60.00" y1="105.00" x2="500.00" y2="105.00"/>
<line x1="60.00" y1="62.50" x2="500.00" y2="62.50"/>
<line x1="60.00" y1="20.00" x2="500.00" y2="20.00"/>
</g>
<rect x="60.00" y="20.00" width="440.00" height="340.00" fill="none" stroke="#9a9a9a" stroke-width="1.5"/>
<g stroke="black" stroke-width="2">
<line x1="60.00" y1="360.00" x2="500.00" y2="360.00"/>
<line x1="60.00" y1="360.00" x2="60.00" y2="20.00"/>
</g>
<g font-family="Arial, Helvetica, sans-serif" font-size="12" fill="black">
<line x1="60.00" y1="360.00" x2="60.00" y2="366.00" stroke="black" stroke-width="1.5"/>
<text x="60.00" y="382.00" text-anchor="middle">0</text>
<line x1="104.00" y1="360.00" x2="104.00" y2="366.00" stroke="black" stroke-width="1.5"/>
<text x="104.00" y="382.00" text-anchor="middle">1</text>
<line x1="148.00" y1="360.00" x2="148.00" y2="366.00" stroke="black" stroke-width="1.5"/>
<text x="148.00" y="382.00" text-anchor="middle">2</text>
<line x1="192.00" y1="360.00" x2="192.00" y2="366.00" stroke="black" stroke-width="1.5"/>
<text x="192.00" y="382.00" text-anchor="middle">3</text>
<line x1="236.00" y1="360.00" x2="236.00" y2="366.00" stroke="black" stroke-width="1.5"/>
<text x="236.00" y="382.00" text-anchor="middle">4</text>
<line x1="280.00" y1="360.00" x2="280.00" y2="366.00" stroke="black" stroke-width="1.5"/>
<text x="280.00" y="382.00" text-anchor="middle">5</text>
<line x1="324.00" y1="360.00" x2="324.00" y2="366.00" stroke="black" stroke-width="1.5"/>
<text x="324.00" y="382.00" text-anchor="middle">6</text>
<line x1="368.00" y1="360.00" x2="368.00" y2="366.00" stroke="black" stroke-width="1.5"/>
<text x="368.00" y="382.00" text-anchor="middle">7</text>
<line x1="412.00" y1="360.00" x2="412.00" y2="366.00" stroke="black" stroke-width="1.5"/>
<text x="412.00" y="382.00" text-anchor="middle">8</text>
<line x1="456.00" y1="360.00" x2="456.00" y2="366.00" stroke="black" stroke-width="1.5"/>
<text x="456.00" y="382.00" text-anchor="middle">9</text>
<line x1="500.00" y1="360.00" x2="500.00" y2="366.00" stroke="black" stroke-width="1.5"/>
<text x="500.00" y="382.00" text-anchor="middle">10</text>
<line x1="60.00" y1="360.00" x2="54.00" y2="360.00" stroke="black" stroke-width="1.5"/>
<text x="50.00" y="364.00" text-anchor="end">0</text>
<line x1="60.00" y1="317.50" x2="54.00" y2="317.50" stroke="black" stroke-width="1.5"/>
<text x="50.00" y="321.50" text-anchor="end">10</text>
<line x1="60.00" y1="275.00" x2="54.00" y2="275.00" stroke="black" stroke-width="1.5"/>
<text x="50.00" y="279.00" text-anchor="end">20</text>
<line x1="60.00" y1="232.50" x2="54.00" y2="232.50" stroke="black" stroke-width="1.5"/>
<text x="50.00" y="236.50" text-anchor="end">30</text>
<line x1="60.00" y1="190.00" x2="54.00" y2="190.00" stroke="black" stroke-width="1.5"/>
<text x="50.00" y="194.00" text-anchor="end">40</text>
<line x1="60.00" y1="147.50" x2="54.00" y2="147.50" stroke="black" stroke-width="1.5"/>
<text x="50.00" y="151.50" text-anchor="end">50</text>
<line x1="60.00" y1="105.00" x2="54.00" y2="105.00" stroke="black" stroke-width="1.5"/>
<text x="50.00" y="109.00" text-anchor="end">60</text>
<line x1="60.00" y1="62.50" x2="54.00" y2="62.50" stroke="black" stroke-width="1.5"/>
<text x="50.00" y="66.50" text-anchor="end">70</text>
<line x1="60.00" y1="20.00" x2="54.00" y2="20.00" stroke="black" stroke-width="1.5"/>
<text x="50.00" y="24.00" text-anchor="end">80</text>
<text x="280.00" y="402" text-anchor="middle">x (h)</text>
<text x="18" y="190.00" text-anchor="middle" transform="rotate(-90 18 190.00)">y (Punkte)</text>
</g>
</svg>