<svg xmlns="http://www.w3.org/2000/svg" width="640" height="400" viewBox="0 0 640 400" role="img" aria-label="Sigmoid-Kurven der Modelle A und B mit Datenpunkten">
  <style>
    .axis { stroke: #222; stroke-width: 1; }
    .grid { stroke: #ccc; stroke-width: 0.5; }
    .grid-fine { stroke: #eee; stroke-width: 0.4; }
    .grid-nano { stroke: #f6f6f6; stroke-width: 0.3; }
    .label { font-family: Arial, sans-serif; font-size: 12px; fill: #222; }
    .legend { font-family: Arial, sans-serif; font-size: 12px; fill: #222; }
  </style>
  <rect x="0" y="0" width="640" height="400" fill="white" />

  <!-- Grid and axes -->
  <g>
    <!-- noch feinere horizontale Linien alle 0.01 (ohne Beschriftung) -->
    <g class="grid-nano">
      <line x1="60" y1="33" x2="580" y2="33" />
      <line x1="60" y1="36" x2="580" y2="36" />
      <line x1="60" y1="39" x2="580" y2="39" />
      <line x1="60" y1="42" x2="580" y2="42" />
      <line x1="60" y1="48" x2="580" y2="48" />
      <line x1="60" y1="51" x2="580" y2="51" />
      <line x1="60" y1="54" x2="580" y2="54" />
      <line x1="60" y1="57" x2="580" y2="57" />
      <line x1="60" y1="63" x2="580" y2="63" />
      <line x1="60" y1="66" x2="580" y2="66" />
      <line x1="60" y1="69" x2="580" y2="69" />
      <line x1="60" y1="72" x2="580" y2="72" />
      <line x1="60" y1="78" x2="580" y2="78" />
      <line x1="60" y1="81" x2="580" y2="81" />
      <line x1="60" y1="84" x2="580" y2="84" />
      <line x1="60" y1="87" x2="580" y2="87" />
      <line x1="60" y1="93" x2="580" y2="93" />
      <line x1="60" y1="96" x2="580" y2="96" />
      <line x1="60" y1="99" x2="580" y2="99" />
      <line x1="60" y1="102" x2="580" y2="102" />
      <line x1="60" y1="108" x2="580" y2="108" />
      <line x1="60" y1="111" x2="580" y2="111" />
      <line x1="60" y1="114" x2="580" y2="114" />
      <line x1="60" y1="117" x2="580" y2="117" />
      <line x1="60" y1="123" x2="580" y2="123" />
      <line x1="60" y1="126" x2="580" y2="126" />
      <line x1="60" y1="129" x2="580" y2="129" />
      <line x1="60" y1="132" x2="580" y2="132" />
      <line x1="60" y1="138" x2="580" y2="138" />
      <line x1="60" y1="141" x2="580" y2="141" />
      <line x1="60" y1="144" x2="580" y2="144" />
      <line x1="60" y1="147" x2="580" y2="147" />
      <line x1="60" y1="153" x2="580" y2="153" />
      <line x1="60" y1="156" x2="580" y2="156" />
      <line x1="60" y1="159" x2="580" y2="159" />
      <line x1="60" y1="162" x2="580" y2="162" />
      <line x1="60" y1="168" x2="580" y2="168" />
      <line x1="60" y1="171" x2="580" y2="171" />
      <line x1="60" y1="174" x2="580" y2="174" />
      <line x1="60" y1="177" x2="580" y2="177" />
      <line x1="60" y1="183" x2="580" y2="183" />
      <line x1="60" y1="186" x2="580" y2="186" />
      <line x1="60" y1="189" x2="580" y2="189" />
      <line x1="60" y1="192" x2="580" y2="192" />
      <line x1="60" y1="198" x2="580" y2="198" />
      <line x1="60" y1="201" x2="580" y2="201" />
      <line x1="60" y1="204" x2="580" y2="204" />
      <line x1="60" y1="207" x2="580" y2="207" />
      <line x1="60" y1="213" x2="580" y2="213" />
      <line x1="60" y1="216" x2="580" y2="216" />
      <line x1="60" y1="219" x2="580" y2="219" />
      <line x1="60" y1="222" x2="580" y2="222" />
      <line x1="60" y1="228" x2="580" y2="228" />
      <line x1="60" y1="231" x2="580" y2="231" />
      <line x1="60" y1="234" x2="580" y2="234" />
      <line x1="60" y1="237" x2="580" y2="237" />
      <line x1="60" y1="243" x2="580" y2="243" />
      <line x1="60" y1="246" x2="580" y2="246" />
      <line x1="60" y1="249" x2="580" y2="249" />
      <line x1="60" y1="252" x2="580" y2="252" />
      <line x1="60" y1="258" x2="580" y2="258" />
      <line x1="60" y1="261" x2="580" y2="261" />
      <line x1="60" y1="264" x2="580" y2="264" />
      <line x1="60" y1="267" x2="580" y2="267" />
      <line x1="60" y1="273" x2="580" y2="273" />
      <line x1="60" y1="276" x2="580" y2="276" />
      <line x1="60" y1="279" x2="580" y2="279" />
      <line x1="60" y1="282" x2="580" y2="282" />
      <line x1="60" y1="288" x2="580" y2="288" />
      <line x1="60" y1="291" x2="580" y2="291" />
      <line x1="60" y1="294" x2="580" y2="294" />
      <line x1="60" y1="297" x2="580" y2="297" />
      <line x1="60" y1="303" x2="580" y2="303" />
      <line x1="60" y1="306" x2="580" y2="306" />
      <line x1="60" y1="309" x2="580" y2="309" />
      <line x1="60" y1="312" x2="580" y2="312" />
      <line x1="60" y1="318" x2="580" y2="318" />
      <line x1="60" y1="321" x2="580" y2="321" />
      <line x1="60" y1="324" x2="580" y2="324" />
      <line x1="60" y1="327" x2="580" y2="327" />
    </g>
    <!-- feinere horizontale Linien alle 0.05 (ohne Beschriftung) -->
    <line class="grid-fine" x1="60" y1="45" x2="580" y2="45" />
    <line class="grid-fine" x1="60" y1="75" x2="580" y2="75" />
    <line class="grid-fine" x1="60" y1="105" x2="580" y2="105" />
    <line class="grid-fine" x1="60" y1="135" x2="580" y2="135" />
    <line class="grid-fine" x1="60" y1="165" x2="580" y2="165" />
    <line class="grid-fine" x1="60" y1="195" x2="580" y2="195" />
    <line class="grid-fine" x1="60" y1="225" x2="580" y2="225" />
    <line class="grid-fine" x1="60" y1="255" x2="580" y2="255" />
    <line class="grid-fine" x1="60" y1="285" x2="580" y2="285" />
    <line class="grid-fine" x1="60" y1="315" x2="580" y2="315" />

    <!-- horizontal grid and labels for p -->
    <!-- y ticks every 0.1 -->
    <line class="grid" x1="60" y1="30" x2="580" y2="30" />
    <text class="label" x="54" y="34" text-anchor="end">1.0</text>
    <line class="grid" x1="60" y1="60" x2="580" y2="60" />
    <text class="label" x="54" y="64" text-anchor="end">0.9</text>
    <line class="grid" x1="60" y1="90" x2="580" y2="90" />
    <text class="label" x="54" y="94" text-anchor="end">0.8</text>
    <line class="grid" x1="60" y1="120" x2="580" y2="120" />
    <text class="label" x="54" y="124" text-anchor="end">0.7</text>
    <line class="grid" x1="60" y1="150" x2="580" y2="150" />
    <text class="label" x="54" y="154" text-anchor="end">0.6</text>
    <line class="grid" x1="60" y1="180" x2="580" y2="180" />
    <text class="label" x="54" y="184" text-anchor="end">0.5</text>
    <line class="grid" x1="60" y1="210" x2="580" y2="210" />
    <text class="label" x="54" y="214" text-anchor="end">0.4</text>
    <line class="grid" x1="60" y1="240" x2="580" y2="240" />
    <text class="label" x="54" y="244" text-anchor="end">0.3</text>
    <line class="grid" x1="60" y1="270" x2="580" y2="270" />
    <text class="label" x="54" y="274" text-anchor="end">0.2</text>
    <line class="grid" x1="60" y1="300" x2="580" y2="300" />
    <text class="label" x="54" y="304" text-anchor="end">0.1</text>
    <line class="grid" x1="60" y1="330" x2="580" y2="330" />
    <text class="label" x="54" y="334" text-anchor="end">0.0</text>

    <!-- vertical grid and labels for x -->
    <line class="grid" x1="60" y1="30" x2="60" y2="330" />
    <text class="label" x="60" y="350" text-anchor="middle">-8</text>
    <line class="grid" x1="125.0" y1="30" x2="125.0" y2="330" />
    <text class="label" x="125.0" y="350" text-anchor="middle">-6</text>
    <line class="grid" x1="190.0" y1="30" x2="190.0" y2="330" />
    <text class="label" x="190.0" y="350" text-anchor="middle">-4</text>
    <line class="grid" x1="255.0" y1="30" x2="255.0" y2="330" />
    <text class="label" x="255.0" y="350" text-anchor="middle">-2</text>
    <line class="grid" x1="320.0" y1="30" x2="320.0" y2="330" />
    <text class="label" x="320.0" y="350" text-anchor="middle">0</text>
    <line class="grid" x1="385.0" y1="30" x2="385.0" y2="330" />
    <text class="label" x="385.0" y="350" text-anchor="middle">2</text>
    <line class="grid" x1="450.0" y1="30" x2="450.0" y2="330" />
    <text class="label" x="450.0" y="350" text-anchor="middle">4</text>
    <line class="grid" x1="515.0" y1="30" x2="515.0" y2="330" />
    <text class="label" x="515.0" y="350" text-anchor="middle">6</text>
    <line class="grid" x1="580.0" y1="30" x2="580.0" y2="330" />
    <text class="label" x="580.0" y="350" text-anchor="middle">8</text>
  </g>

  <line class="axis" x1="60" y1="330" x2="580" y2="330" />
  <line class="axis" x1="60" y1="330" x2="60" y2="30" />
  <text class="label" x="320" y="370" text-anchor="middle">x</text>
  <text class="label" x="18" y="180" text-anchor="middle" transform="rotate(-90 18 180)">p</text>

  <!-- decision threshold p=0.5 -->
  <line x1="60" y1="180" x2="580" y2="180" stroke="#d33" stroke-width="1" stroke-dasharray="4 3" />

  <!-- Model A: sigma(1.0x - 1.8), sampled x=-8..8 in 0.5er Schritten (richtige S-Form) -->
  <polyline fill="none" stroke="#2a7de1" stroke-width="2"
    points="60.0,330.0 76.2,330.0 92.5,330.0 108.8,329.9 125.0,329.9 141.2,329.8 157.5,329.7 173.8,329.5 190.0,329.1 206.2,328.5 222.5,327.6 238.8,326.0 255.0,323.4 271.2,319.3 287.5,312.8 303.8,302.7 320.0,287.4 336.2,265.8 352.5,237.0 368.8,202.3 385.0,165.0 401.2,129.5 417.5,99.4 433.8,76.3 450.0,59.9 466.2,48.9 482.5,41.7 498.8,37.2 515.0,34.4 531.2,32.7 547.5,31.6 563.8,31.0 580.0,30.6" />

  <!-- Model B: sigma(2.0x - 4.2), sampled x=-8..8 in 0.5er Schritten (steilere S-Form) -->
  <polyline fill="none" stroke="#e14d2a" stroke-width="2"
    points="60.0,330.0 76.2,330.0 92.5,330.0 108.8,330.0 125.0,330.0 141.2,330.0 157.5,330.0 173.8,330.0 190.0,330.0 206.2,330.0 222.5,330.0 238.8,330.0 255.0,329.9 271.2,329.8 287.5,329.4 303.8,328.4 320.0,325.6 336.2,318.3 352.5,300.1 368.8,260.6 385.0,195.0 401.2,123.0 417.5,72.6 433.8,47.2 450.0,36.6 466.2,32.4 482.5,30.9 498.8,30.3 515.0,30.1 531.2,30.0 547.5,30.0 563.8,30.0 580.0,30.0" />

  <!-- Data points -->
  <g>
    <circle cx="336.3" cy="330" r="4" fill="#7b8794" />
    <circle cx="352.5" cy="330" r="4" fill="#7b8794" />
    <circle cx="368.8" cy="330" r="4" fill="#7b8794" />
    <circle cx="385.0" cy="330" r="4" fill="#7b8794" />
    <circle cx="401.3" cy="30" r="4" fill="#2a9d8f" />
    <circle cx="417.5" cy="30" r="4" fill="#2a9d8f" />
  </g>

  <!-- Legend -->
  <rect x="70" y="40" width="240" height="135" fill="white" stroke="#ccc" />
  <line x1="85" y1="60" x2="115" y2="60" stroke="#2a7de1" stroke-width="2" />
  <text class="legend" x="125" y="64">Modell A: p = σ(1.0x - 1.8)</text>
  <line x1="85" y1="80" x2="115" y2="80" stroke="#e14d2a" stroke-width="2" />
  <text class="legend" x="125" y="84">Modell B: p = σ(2.0x - 4.2)</text>
  <line x1="85" y1="100" x2="115" y2="100" stroke="#d33" stroke-width="1" stroke-dasharray="4 3" />
  <text class="legend" x="125" y="104">Schwelle p = 0.5</text>
  <circle cx="100" cy="120" r="4" fill="#7b8794" />
  <text class="legend" x="125" y="124">Datenpunkt: nicht bestanden</text>
  <circle cx="100" cy="140" r="4" fill="#2a9d8f" />
  <text class="legend" x="125" y="144">Datenpunkt: bestanden</text>
</svg>
